<?xml version="1.0" encoding="UTF-8" standalone="no"?>
<!-- Created with Inkscape (http://www.inkscape.org/) -->

<svg
   version="1.1"
   id="svg1"
   width="512"
   height="512"
   viewBox="0 0 512 512">

      <path
         style="fill:#d0d0d0"
         d="m 213.07895,472.41667 0.0789,-1.91667 0.52522,1.3125 0.52522,1.3125 -0.60416,0.60417 L 213,474.33333 Z m 192,0 0.0789,-1.91667 0.52522,1.3125 0.52522,1.3125 -0.60416,0.60417 L 405,474.33333 Z m -192,-6 0.0789,-1.91667 0.52522,1.3125 0.52522,1.3125 -0.60416,0.60417 L 213,468.33333 Z m 192,0 0.0789,-1.91667 0.52522,1.3125 0.52522,1.3125 -0.60416,0.60417 L 405,468.33333 Z M 184.87244,454.25 183.5,452.5 l 1.75,1.37244 1.75,1.37245 V 455.62244 456 h -0.37756 -0.37755 z m 192,0 -1.37244,-1.75 1.75,1.37244 1.75,1.37245 V 455.62244 456 h -0.37756 -0.37755 z M 200.40499,438.75 198.5,436.5 l 2.25,1.90499 2.25,1.90499 V 440.65499 441 h -0.34501 -0.34501 z m 192,0 -1.90499,-2.25 2.25,1.90499 2.25,1.90499 V 440.65499 441 h -0.34501 -0.34501 z m -225.59249,-12.43311 1.3125,-0.52522 0.60417,0.60416 0.60416,0.60417 -1.91666,-0.079 -1.91667,-0.0789 z m 6,0 1.3125,-0.52522 0.60417,0.60416 0.60416,0.60417 -1.91666,-0.079 -1.91667,-0.0789 z m 186,0 1.3125,-0.52522 0.60417,0.60416 0.60416,0.60417 -1.91666,-0.079 -1.91667,-0.0789 z m 6,0 1.3125,-0.52522 0.60417,0.60416 0.60416,0.60417 -1.91666,-0.079 -1.91667,-0.0789 z M 72.872445,396.25 71.5,394.5 l 1.75,1.37244 1.75,1.37245 V 397.62244 398 H 74.622445 74.244889 Z M 337,177.62244 v -0.37755 l 1.75,-1.37245 1.75,-1.37244 -1.37244,1.75 -1.37245,1.75 H 337.37756 337 Z m -91,-30 v -0.37755 l 1.75,-1.37245 1.75,-1.37244 -1.37244,1.75 -1.37245,1.75 H 246.37756 246 Z M 313.94617,110.25 310.5,106.5 l 3.75,3.44617 3.75,3.44616 V 113.69617 114 h -0.30383 -0.30384 z m -9.02186,-9 -2.42431,-2.75 2.75,2.42431 2.75,2.42432 V 103.67431 104 h -0.32569 -0.32568 z m 40.06497,-18 L 327.5,65.5 345.25,82.989284 363,100.47857 V 100.73928 101 h -0.26072 -0.26071 z m -47.11684,11 -1.37244,-1.75 1.75,1.372445 1.75,1.372444 V 95.622445 96 h -0.37756 -0.37755 z M 286.46241,82.75 281.5,77.5 l 5.25,4.962408 5.25,4.962408 V 87.712408 88 h -0.28759 -0.28759 z m 78.02316,-11 L 351.5,58.5 364.75,71.485572 378,84.471143 V 84.735572 85 h -0.26443 -0.26443 z m -95.04848,-6 -2.93709,-3.25 3.25,2.937091 3.25,2.937091 V 68.687091 69 h -0.31291 -0.31291 z M 2.4049876,60.75 0.5,58.5 2.75,60.404988 5,62.309975 V 62.654988 63 H 4.6549876 4.3099751 Z M 251.48295,47.75 240.5,36.5 251.75,47.482946 263,58.465892 V 58.732946 59 h -0.26705 -0.26706 z m -48.404,-1.333333 0.0789,-1.916667 0.52522,1.3125 0.52522,1.3125 -0.60416,0.604167 L 203,48.333333 Z M 254.87244,20.25 253.5,18.5 l 1.75,1.372445 1.75,1.372444 V 21.622445 22 h -0.37756 -0.37755 z"
         id="path8" />
      <path
         style="fill:#adadad"
         d="m 213.07895,469.41667 0.0789,-1.91667 0.52522,1.3125 0.52522,1.3125 -0.60416,0.60417 L 213,471.33333 Z m 192,0 0.0789,-1.91667 0.52522,1.3125 0.52522,1.3125 -0.60416,0.60417 L 405,471.33333 Z m -235.26645,-43.09978 1.3125,-0.52522 0.60417,0.60416 0.60416,0.60417 -1.91666,-0.079 -1.91667,-0.0789 z m 192,0 1.3125,-0.52522 0.60417,0.60416 0.60416,0.60417 -1.91666,-0.079 -1.91667,-0.0789 z m -176.48316,-21.06684 91.82934,-0.26054 91.17066,0.26057 91.17066,0.26057 -183,-2e-5 -183,-3e-5 z M 449.98611,206.75 463.47221,193 h 0.2639 H 464 v 0.26389 0.2639 L 450.25,207.01389 436.5,220.5 Z m -204.11367,8.5 -1.37244,-1.75 1.75,1.37244 1.75,1.37245 V 216.62244 217 h -0.37756 -0.37755 z m -103.0497,-65.99962 33.32274,-0.27752 32.67726,0.27771 32.67726,0.27772 -66,-2e-4 -66,-2e-4 z M 490.232,136 v -3.5 l 0.45733,1.75 0.45732,1.75 -0.45732,1.75 -0.45733,1.75 z M 325.98499,91.25 313.5,78.5 326.25,90.984994 339,103.46999 v 0.265 V 104 h -0.26501 -0.265 z m 57.00429,-28 L 365.5,45.5 383.25,62.989284 401,80.478567 V 80.739284 81 h -0.26072 -0.26071 z M 65.872445,73.25 64.5,71.5 66.25,72.872445 68,74.244889 V 74.622445 75 H 67.622445 67.244889 Z M 274.48958,39.75 256.5,21.5 274.75,39.489581 293,57.479163 V 57.739581 58 h -0.26042 -0.26042 z M 16.75,42.257493 24,41.912381 l 7.25,0.345112 7.25,0.345113 H 24 9.5 Z m 28.0625,0.05939 1.3125,-0.525219 0.604167,0.604166 L 47.333333,43 45.416667,42.921053 43.5,42.842105 Z"
         id="path7" />
      <path
         style="fill:#929292"
         d="m 184,485.62244 v -0.37755 l 1.75,-1.37245 1.75,-1.37244 -1.37244,1.75 -1.37245,1.75 H 184.37756 184 Z m 192,0 v -0.37755 l 1.75,-1.37245 1.75,-1.37244 -1.37244,1.75 -1.37245,1.75 H 376.37756 376 Z m 20.25,-251.31177 1.75,-0.45732 1.75,0.45732 1.75,0.45733 h -3.5 -3.5 z m -122.48834,-12.01793 2.26166,-0.4349 1.73834,0.45508 1.73834,0.45508 -4,-0.0202 -4,-0.0202 z M 281.99662,105.25 226.5,49.5 282.25,104.99662 338,160.49324 V 160.74662 161 h -0.25338 -0.25338 z m 15.81588,49.06689 1.3125,-0.52522 0.60417,0.60416 0.60416,0.60417 -1.91666,-0.0789 -1.91667,-0.0789 z m 71,-52 1.3125,-0.52522 0.60417,0.60416 0.60416,0.60417 -1.91666,-0.079 -1.91667,-0.0789 z M 443.99364,66.25 414.5,36.5 444.25,65.993644 474,95.487287 V 95.743644 96 h -0.25636 -0.25635 z m -25.91469,6.166667 0.0789,-1.916667 0.52522,1.3125 0.52522,1.3125 -0.60416,0.604167 L 418,74.333333 Z M 39.25,42.310674 41,41.853352 l 1.75,0.457322 1.75,0.457323 H 41 37.5 Z"
         id="path6" />
      <path
         style="fill:#707070"
         d="m 267.25,222.31067 1.75,-0.45732 1.75,0.45732 1.75,0.45733 H 269 265.5 Z M 255.5,171 l 1.80998,-2 h 0.5 0.5 l -1.80998,2 -1.80998,2 h -0.5 -0.5 z M 488.87244,81.25 487.5,79.5 l 1.75,1.372445 1.75,1.372444 V 82.622445 83 h -0.37756 -0.37755 z M 211,23.622445 V 23.244889 L 212.75,21.872445 214.5,20.5 213.12756,22.25 211.75511,24 H 211.37756 211 Z"
         id="path5" />
      <path
         style="fill:#515151"
         d="m 200.5,499 1.80998,-2 h 0.5 0.5 l -1.80998,2 -1.80998,2 h -0.5 -0.5 z m 192,0 1.80998,-2 h 0.5 0.5 l -1.80998,2 -1.80998,2 h -0.5 -0.5 z M 154.87244,484.25 153.5,482.5 l 1.75,1.37244 1.75,1.37245 V 485.62244 486 h -0.37756 -0.37755 z m 192,0 -1.37244,-1.75 1.75,1.37244 1.75,1.37245 V 485.62244 486 h -0.37756 -0.37755 z M 104.75,362.25412 115,361.93003 l 10.25,0.32409 10.25,0.32409 H 115 94.5 Z m 106.07808,-0.004 69.32808,-0.26383 68.67192,0.26388 68.67192,0.26387 -138,-5e-5 -138,-4e-5 z M 102.25,341.25669 l 7.75,-0.34082 7.75,0.34082 7.75,0.34082 H 110 94.5 Z m 109.92223,-0.007 64.67223,-0.26469 65.32777,0.26464 65.32777,0.26464 -130,5e-5 -130,6e-5 z M 450,236.62244 v -0.37755 l 1.75,-1.37245 1.75,-1.37244 -1.37244,1.75 -1.37245,1.75 H 450.37756 450 Z m 29,-29 v -0.37755 l 1.75,-1.37245 1.75,-1.37244 -1.37244,1.75 -1.37245,1.75 H 479.37756 479 Z M 240.15789,200 v -2.5 l 0.50439,1.25 0.50439,1.25 -0.50439,1.25 -0.50439,1.25 z m 24.60377,1.29274 2.26166,-0.4349 1.73834,0.45508 1.73834,0.45508 -4,-0.0202 -4,-0.0202 z M 255.99579,109.25 211.5,64.5 256.25,108.99579 301,153.49157 V 153.74579 154 h -0.25421 -0.25422 z M 457.99364,50.25 428.5,20.5 458.25,49.993644 488,79.487287 V 79.743644 80 h -0.25636 -0.25635 z M 358.75,22.337719 360,21.833333 l 1.25,0.504386 1.25,0.504386 h -2.5 -2.5 z"
         id="path4" />
      <path
         style="fill:#2e2e2e"
         d="m 166.8125,511.31689 1.3125,-0.52522 0.60417,0.60416 0.60416,0.60417 -1.91666,-0.079 -1.91667,-0.0789 z m 6,0 1.3125,-0.52522 0.60417,0.60416 0.60416,0.60417 -1.91666,-0.079 -1.91667,-0.0789 z m 186,0 1.3125,-0.52522 0.60417,0.60416 0.60416,0.60417 -1.91666,-0.079 -1.91667,-0.0789 z m 6,0 1.3125,-0.52522 0.60417,0.60416 0.60416,0.60417 -1.91666,-0.079 -1.91667,-0.0789 z m -236.73355,-38.90022 0.0789,-1.91667 0.52522,1.3125 0.52522,1.3125 -0.60416,0.60417 L 128,474.33333 Z m 192,0 0.0789,-1.91667 0.52522,1.3125 0.52522,1.3125 -0.60416,0.60417 L 320,474.33333 Z m -192,-6 0.0789,-1.91667 0.52522,1.3125 0.52522,1.3125 -0.60416,0.60417 L 128,468.33333 Z m 192,0 0.0789,-1.91667 0.52522,1.3125 0.52522,1.3125 -0.60416,0.60417 L 320,468.33333 Z M 201.87244,441.25 200.5,439.5 l 1.75,1.37244 1.75,1.37245 V 442.62244 443 h -0.37756 -0.37755 z m 192,0 -1.37244,-1.75 1.75,1.37244 1.75,1.37245 V 442.62244 443 h -0.37756 -0.37755 z m -196,-4 -1.37244,-1.75 1.75,1.37244 1.75,1.37245 V 438.62244 439 h -0.37756 -0.37755 z m 192,0 -1.37244,-1.75 1.75,1.37244 1.75,1.37245 V 438.62244 439 h -0.37756 -0.37755 z M 72.924314,395.25 70.5,392.5 l 2.75,2.42431 2.75,2.42432 V 397.67431 398 h -0.325686 -0.325686 z m 323.339436,-139.96758 2.76375,-0.41792 2.23625,0.43157 2.23625,0.43157 -5,-0.0137 -5,-0.0136 z M 465.5,221 478.47114,208 h 0.5 0.5 L 466.5,221 453.52886,234 h -0.5 -0.5 z m -194.23097,-19.69299 1.76903,-0.46099 1.23097,0.49804 1.23097,0.49805 -3,-0.0371 -3,-0.037 z m 7.48097,0.0307 1.25,-0.50439 1.25,0.50439 1.25,0.50439 h -2.5 -2.5 z m 20.0625,-26.02083 1.3125,-0.52522 0.60417,0.60416 0.60416,0.60417 -1.91666,-0.0789 -1.91667,-0.0789 z m 4.45653,-0.01 1.76903,-0.46099 1.23097,0.49804 1.23097,0.49805 -3,-0.0371 -3,-0.037 z m 207.80992,-33.89034 0.0789,-1.91667 0.52522,1.3125 0.52522,1.3125 -0.60416,0.60417 L 511,143.33333 Z M 281.99548,77.25 240.5,35.5 282.25,76.995482 324,118.49096 V 118.74548 119 h -0.25452 -0.25452 z m 91.45747,4.5 -3.95295,-4.25 4.25,3.952948 4.25,3.952948 V 85.702948 86 h -0.29705 -0.29705 z m -16.01586,-16 -2.93709,-3.25 3.25,2.937091 3.25,2.937091 V 68.687091 69 h -0.31291 -0.31291 z m 50.03945,-8 -7.97654,-8.25 8.25,7.97654 8.25,7.97654 V 65.72654 66 h -0.27346 -0.27346 z"
         id="path3" />
      <path
         style="fill:#000000"
         d="m 164.29325,510.96192 -5.20676,-0.73293 -6.534,-3.05763 -6.53399,-3.05763 -5.06612,-5.06611 -5.06611,-5.06612 -3.02613,-6.46667 -3.02612,-6.46667 -0.79486,-5.77408 -0.79487,-5.77408 0.88457,-6.32611 0.88456,-6.32611 2.56481,-5.42155 2.5648,-5.42155 5.00679,-5.47823 5.00679,-5.47822 6.17169,-3.03832 6.1717,-3.03831 6.32566,-1.17637 6.32566,-1.17638 6.95798,1.19316 6.95798,1.19316 5.71636,2.90335 5.71636,2.90335 4.84406,4.84407 4.84407,4.84406 2.90335,5.71636 2.90335,5.71636 1.19316,6.95798 1.19316,6.95798 -1.13852,6.12208 -1.13852,6.12208 -2.46246,5.37872 -2.46246,5.37873 -4.16614,4.51973 -4.16614,4.51973 -4.67346,2.97322 -4.67345,2.97321 -5,1.50926 -5,1.50926 -4.5,0.42008 -4.5,0.42008 z m 15.21533,-21.8269 4.00857,-1.82106 3.13557,-3.57121 3.13556,-3.57121 1.21839,-3.69174 1.21838,-3.69174 -0.40845,-5.64676 -0.40845,-5.64676 -2.61015,-3.84119 -2.61016,-3.84119 -3.84392,-2.62714 -3.84392,-2.62713 -6.58672,-0.38257 -6.58673,-0.38256 -3.91327,2.01204 -3.91328,2.01203 -2.69695,2.84159 -2.69695,2.84158 -1.55305,3.71788 L 149,464.93576 v 3.6661 3.6661 l 1.22984,4.11602 1.22983,4.11602 4.03044,4.03659 4.03043,4.03658 3.48973,1.11133 3.48973,1.11132 4.5,0.0801 4.5,0.0801 z m 176.78467,21.8269 -5.20676,-0.73293 -6.534,-3.05763 -6.53399,-3.05763 -5.06612,-5.06611 -5.06611,-5.06612 -3.02613,-6.46667 -3.02612,-6.46667 -0.79486,-5.77408 -0.79487,-5.77408 0.88457,-6.32611 0.88456,-6.32611 2.56481,-5.42155 2.5648,-5.42155 5.00679,-5.47823 5.00679,-5.47822 6.17169,-3.03832 6.1717,-3.03831 6.32566,-1.17637 6.32566,-1.17638 6.95798,1.19316 6.95798,1.19316 5.71636,2.90335 5.71636,2.90335 4.84406,4.84407 4.84407,4.84406 2.90335,5.71636 2.90335,5.71636 1.19316,6.95798 1.19316,6.95798 -1.13852,6.12208 -1.13852,6.12208 -2.46246,5.37872 -2.46246,5.37873 -4.16614,4.51973 -4.16614,4.51973 -4.67346,2.97322 -4.67345,2.97321 -5,1.50926 -5,1.50926 -4.5,0.42008 -4.5,0.42008 z m 15.21533,-21.8269 4.00857,-1.82106 3.13557,-3.57121 3.13556,-3.57121 1.21839,-3.69174 1.21838,-3.69174 -0.40845,-5.64676 -0.40845,-5.64676 -2.61015,-3.84119 -2.61016,-3.84119 -3.84392,-2.62714 -3.84392,-2.62713 -6.58672,-0.38257 -6.58673,-0.38256 -3.91327,2.01204 -3.91328,2.01203 -2.69695,2.84159 -2.69695,2.84158 -1.55305,3.71788 L 341,464.93576 v 3.6661 3.6661 l 1.22984,4.11602 1.22983,4.11602 4.03044,4.03659 4.03043,4.03658 3.48973,1.11133 3.48973,1.11132 4.5,0.0801 4.5,0.0801 z M 87.5,403.60524 l -4,-1.2691 -3.051869,-1.59129 -3.051869,-1.5913 -4.113313,-4.46241 -4.113314,-4.46242 -1.49165,-2.88454 -1.491651,-2.88453 -1.063197,-5.75136 -1.063198,-5.75137 0.96368,-5.08146 0.96368,-5.08147 2.727447,-5.01122 2.727447,-5.01121 4.223407,-3.46077 4.223406,-3.46076 5.066224,-1.92502 L 90.021453,342 h 18.056657 18.05667 L 125.62544,340.25 125.1161,338.5 105.54775,240 85.979408,141.5 80.524657,113.78573 75.069906,86.071466 72.621351,81.285733 70.172796,76.5 66.336398,72.808837 62.5,69.117674 57,66.568606 51.5,64.019538 31.875,64.009769 12.25,64 9.1392045,63.377841 6.0284091,62.755682 3.6261053,60.353378 1.2238016,57.951074 0.70283088,55.225792 0.18186019,52.50051 1.5121524,49.316673 2.8424445,46.132835 5.8715623,44.566418 8.9006801,43 29.20034,43.014781 49.5,43.029562 l 6.260268,1.476007 6.260267,1.476007 6.227703,3.143734 6.227703,3.143735 6.76234,6.76234 6.76234,6.76234 3.441506,7.353137 3.441507,7.353138 4.698761,23.72397 4.698765,23.72396 69.94185,0.27604 69.94185,0.27603 2.91757,3.26578 2.91757,3.26577 -0.0222,3.73423 -0.0222,3.73422 -1.72777,2.13296 -1.72776,2.13296 -2.18426,1.11704 L 242.13148,149 175.56574,149 109,149 l -1.6e-4,0.75 -1.6e-4,0.75 19.14919,95.75 19.14919,95.75 H 277.42788 407.5577 l 4.35157,-22.25 4.35156,-22.25 1.41483,-3.10524 1.41483,-3.10523 2.42495,-1.29779 2.42495,-1.29779 3.20854,0.0912 3.20855,0.0912 2.50821,1.87264 2.50821,1.87265 0.9333,2.79991 0.9333,2.79991 -5.80592,29.13924 -5.80591,29.13925 -2.73741,2.75 -2.73741,2.75 -140.32693,0.0683 -140.32692,0.0683 -22.13289,-0.13066 -22.132888,-0.13066 -3.550693,1.48357 -3.550694,1.48357 -1.566417,3.02912 L 85,370.90068 v 3.14966 3.14966 l 3.4,3.4 3.4,3.4 h 183.63212 183.63212 l 3.40146,1.42122 3.40146,1.42122 1.65492,3.20026 1.65492,3.20026 -0.60381,3.21859 -0.60381,3.21859 -2.56519,2.40993 L 462.839,404.5 277.1695,404.68717 91.5,404.87433 Z M 383,254.38482 l -2.5,-0.44467 -7.5,-1.57444 -7.5,-1.57444 -9.5,-3.01423 -9.5,-3.01424 -17,-7.46781 -17,-7.46781 -7.41243,-2.49285 -7.41242,-2.49285 -7.42554,-1.42074 L 282.82406,222 h -12.29784 -12.29784 l -5.34711,-2.79337 -5.34712,-2.79336 -2.95289,-4.20145 -2.95289,-4.20146 -0.42671,-5.89921 -0.42671,-5.89921 1.25899,-3.85597 1.25899,-3.85597 3.35965,-5.27898 3.35965,-5.27898 4.24389,-4.63455 4.24388,-4.63456 5.92159,-3.84716 5.92159,-3.84717 7.71569,-2.43738 7.71569,-2.43739 7.61272,-0.68985 L 301,154.72414 v -0.58801 -0.588 L 254.62973,107.02407 208.25947,60.5 l -1.87974,-5 -1.87973,-5 v -7 -7 l 2.77978,-5.660544 2.77978,-5.660544 4.09782,-3.702128 4.09781,-3.702128 4.62241,-2.048018 4.6224,-2.048018 7,-0.04743 7,-0.04743 5.92352,2.732232 5.92352,2.732231 20.16771,20.014999 20.16771,20.015 2.67805,-4.04681 2.67805,-4.04681 4.16692,-3.018501 4.16692,-3.0185 5.50554,-1.600505 5.50555,-1.600505 6.28042,0.586475 6.28043,0.586476 1.75528,-3.709776 1.75529,-3.709776 4.30156,-4.189009 4.30157,-4.18901 5.50849,-2.06099 5.5085,-2.060991 5.83676,0 5.83676,0 4.19179,1.478952 4.1918,1.478952 3.11763,2.219948 3.11763,2.219948 0.45851,-1.375518 0.4585,-1.375519 4.06765,-4.412877 4.06765,-4.412876 5.04014,-2.641172 5.04015,-2.641172 8,-0.01933 8,-0.01933 5.5,2.702634 5.5,2.702634 34.61305,34.797366 L 495.7261,88.5 l 4.62343,7.955997 4.62343,7.955993 2.51126,7.54401 2.51126,7.544 1.02219,8.16031 1.02218,8.16031 -1.0165,8.97328 -1.01651,8.97328 -2.09172,6.86641 -2.09172,6.86641 -4.47774,9.08832 -4.47773,9.08833 -6.33306,8.41167 L 484.20181,202.5 464.3509,222 444.5,241.5 l -6.5,3.77559 -6.5,3.77559 -8,2.63801 -8,2.63801 -15,0.25114 -15,0.25115 z m 27.56634,-20.47635 5.93366,-1.09152 7.38734,-3.40686 7.38734,-3.40686 18.44908,-18.25162 18.44908,-18.25161 4.9128,-6.5 4.91281,-6.5 3.90715,-7.5 3.90715,-7.5 2.16362,-6.5 2.16363,-6.5 0.54251,-9.5 0.54251,-9.5 -1.69769,-6.5 -1.6977,-6.5 -3.59791,-7 -3.59791,-7 L 446.5669,68.246927 412.5,33.993853 408.17308,33.996927 403.84615,34 400.92308,36.923077 398,39.846154 v 4.097921 4.097921 l 10,10.40941 10,10.40941 v 3.492867 3.492866 l -2.56028,3.042721 -2.56028,3.042721 -3.31824,0.622505 -3.31824,0.622506 -2.87148,-1.521016 -2.87148,-1.521015 -17.95525,-18.033109 -17.95524,-18.03311 -2.62103,-0.575675 -2.62103,-0.575675 -2.5777,0.980038 -2.57769,0.980039 -2.09603,2.249822 L 350,49.377123 v 4.312985 4.312985 l 14.40764,14.625159 14.40765,14.625159 0.4059,2.123361 0.40591,2.123362 -0.82584,3.18702 -0.82584,3.18702 -2.62257,2.062913 L 372.73028,102 h -3.14263 -3.14264 l -2.4725,-1.64714 L 361.5,98.705714 343.43858,80.852857 325.37716,63 l -3.75432,0 -3.75432,0 -1.92391,1.029644 -1.92391,1.029645 -1.59885,3.091837 -1.59885,3.091837 0.58975,3.143664 0.58976,3.143663 13.45865,13.430948 13.45865,13.430952 1.15451,2.78724 1.15451,2.78724 -0.6516,3.47333 -0.6516,3.47334 -2.59767,2.04333 -2.59768,2.04333 -4.08806,0 -4.08806,0 L 284.02708,78.608838 241.5,36.217676 239.31574,35.108838 237.13148,34 l -3.14266,0 -3.14267,0 -2.92307,2.923077 -2.92308,2.923077 0,4.306574 0,4.306575 56.89263,57.020347 56.89263,57.02035 1.10737,2.18426 1.10737,2.18426 v 2.1154 2.1154 l -1.45284,2.80949 -1.45284,2.80948 -3.15018,1.30485 -3.15017,1.30484 -9.64699,-1.84513 -9.64698,-1.84513 -10,0.0269 -10,0.0269 -5.75028,1.55939 -5.75027,1.55938 -4.40083,2.57906 -4.40082,2.57905 -3.99664,4.54042 -3.99664,4.54042 -1.70861,3.60064 -1.70862,3.60064 1.32468,0.81869 1.32468,0.8187 12.03168,-0.0177 12.03167,-0.0177 8,1.64104 8,1.64104 8.6291,2.93625 8.6291,2.93626 14.8709,6.6077 14.8709,6.6077 11.52288,3.8593 11.52288,3.8593 7.97712,1.43969 7.97712,1.43969 7.56634,0.0897 7.56634,0.0897 z"
         id="path2" />

</svg>
