<svg width="19" height="19" viewBox="0 0 19 19" fill="none" xmlns="http://www.w3.org/2000/svg">
<path d="M1 4V7.859C1 8.396 1.213 8.911 1.593 9.291L9.709 17.407C9.89704 17.5951 10.1203 17.7443 10.366 17.846C10.6117 17.9478 10.875 18.0002 11.141 18.0002C11.407 18.0002 11.6703 17.9478 11.916 17.846C12.1617 17.7443 12.385 17.5951 12.573 17.407L17.407 12.573C17.5951 12.385 17.7443 12.1617 17.846 11.916C17.9478 11.6703 18.0002 11.407 18.0002 11.141C18.0002 10.875 17.9478 10.6117 17.846 10.366C17.7443 10.1203 17.5951 9.89704 17.407 9.709L9.29 1.593C8.91044 1.2135 8.39574 1.00021 7.859 1H4C3.20435 1 2.44129 1.31607 1.87868 1.87868C1.31607 2.44129 1 3.20435 1 4V4Z" stroke="#283C91" stroke-width="1.5" stroke-linecap="round" stroke-linejoin="round"/>
</svg>
