<svg width="24" height="24" viewBox="0 0 24 24" fill="none" xmlns="http://www.w3.org/2000/svg">
<g clip-path="url(#clip0_124_506)">
<path d="M8 5C8 4.46957 8.21071 3.96086 8.58579 3.58579C8.96086 3.21071 9.46957 3 10 3C10.5304 3 11.0391 3.21071 11.4142 3.58579C11.7893 3.96086 12 4.46957 12 5C13.1484 5.54303 14.1274 6.38833 14.8321 7.4453C15.5367 8.50227 15.9404 9.73107 16 11V14C16.0753 14.6217 16.2954 15.2171 16.6428 15.7381C16.9902 16.2592 17.4551 16.6914 18 17H2C2.54494 16.6914 3.00981 16.2592 3.35719 15.7381C3.70457 15.2171 3.92474 14.6217 4 14V11C4.05956 9.73107 4.4633 8.50227 5.16795 7.4453C5.8726 6.38833 6.85159 5.54303 8 5" stroke="black" stroke-opacity="0.7" stroke-width="1.5" stroke-linecap="round" stroke-linejoin="round"/>
<path d="M7 17V18C7 18.7956 7.31607 19.5587 7.87868 20.1213C8.44129 20.6839 9.20435 21 10 21C10.7956 21 11.5587 20.6839 12.1213 20.1213C12.6839 19.5587 13 18.7956 13 18V17" stroke="black" stroke-opacity="0.7" stroke-width="1.5" stroke-linecap="round" stroke-linejoin="round"/>
<circle cx="17.5" cy="6.5" r="6.5" fill="#D13338"/>
<path d="M17.6416 2.97852C18.4229 2.97852 18.9665 3.18197 19.2725 3.58887C19.5817 3.99251 19.7363 4.40918 19.7363 4.83887H18.8672C18.8151 4.56217 18.7321 4.3457 18.6182 4.18945C18.4066 3.89648 18.0859 3.75 17.6562 3.75C17.1647 3.75 16.7741 3.97786 16.4844 4.43359C16.1947 4.88607 16.0335 5.53548 16.001 6.38184C16.2028 6.08561 16.4567 5.86426 16.7627 5.71777C17.0426 5.58757 17.3551 5.52246 17.7002 5.52246C18.2861 5.52246 18.7972 5.70964 19.2334 6.08398C19.6696 6.45833 19.8877 7.0166 19.8877 7.75879C19.8877 8.39355 19.681 8.95671 19.2676 9.44824C18.8542 9.93652 18.265 10.1807 17.5 10.1807C16.8457 10.1807 16.2809 9.93327 15.8057 9.43848C15.3304 8.94043 15.0928 8.10384 15.0928 6.92871C15.0928 6.05957 15.1986 5.32227 15.4102 4.7168C15.8171 3.55794 16.5609 2.97852 17.6416 2.97852ZM17.5781 9.39941C18.0404 9.39941 18.3854 9.24479 18.6133 8.93555C18.8444 8.62305 18.96 8.25521 18.96 7.83203C18.96 7.47396 18.8574 7.13379 18.6523 6.81152C18.4473 6.486 18.0745 6.32324 17.5342 6.32324C17.1566 6.32324 16.8245 6.44857 16.5381 6.69922C16.2549 6.94987 16.1133 7.32747 16.1133 7.83203C16.1133 8.27474 16.2419 8.64746 16.499 8.9502C16.7594 9.24967 17.1191 9.39941 17.5781 9.39941Z" fill="white"/>
</g>
<defs>
<clipPath id="clip0_124_506">
<rect width="24" height="24" fill="white"/>
</clipPath>
</defs>
</svg>
